<?xml version="1.0" encoding="UTF-8" standalone="no"?>
<!-- Generator: Adobe Illustrator 15.1.0, SVG Export Plug-In . SVG Version: 6.00 Build 0)  -->

<svg
   xmlns:dc="http://purl.org/dc/elements/1.1/"
   xmlns:cc="http://creativecommons.org/ns#"
   xmlns:rdf="http://www.w3.org/1999/02/22-rdf-syntax-ns#"
   xmlns:svg="http://www.w3.org/2000/svg"
   xmlns="http://www.w3.org/2000/svg"
   xmlns:sodipodi="http://sodipodi.sourceforge.net/DTD/sodipodi-0.dtd"
   xmlns:inkscape="http://www.inkscape.org/namespaces/inkscape"
   id="Layer_1"
   enable-background="new 0 0 360 360"
   xml:space="preserve"
   viewBox="0 0 360 360"
   version="1.1"
   y="0px"
   x="0px"
   inkscape:version="0.91 r13725"
   sodipodi:docname="calculator.svg"><defs
     id="defs71" /><sodipodi:namedview
     pagecolor="#ffffff"
     bordercolor="#666666"
     borderopacity="1"
     objecttolerance="10"
     gridtolerance="10"
     guidetolerance="10"
     inkscape:pageopacity="0"
     inkscape:pageshadow="2"
     inkscape:window-width="1920"
     inkscape:window-height="1021"
     id="namedview69"
     showgrid="false"
     inkscape:zoom="0.65555556"
     inkscape:cx="-188.38983"
     inkscape:cy="180"
     inkscape:window-x="0"
     inkscape:window-y="0"
     inkscape:window-maximized="1"
     inkscape:current-layer="Layer_1" /><path
     style="stroke:#006d00;stroke-opacity:1;fill:#006d00;fill-opacity:1"
     inkscape:connector-curvature="0"
     d="m 271.90682,293.68105 c 0,18.42918 -14.30394,33.36979 -31.9489,33.36979 l -118.01707,0 c -17.64496,0 -31.944852,-14.93657 -31.944852,-33.36979 l 0,-224.311263 c 0,-18.430188 14.299892,-33.369788 31.944852,-33.369788 l 118.00697,0 c 17.65506,0 31.95495,14.9396 31.95495,33.369788 l 0,224.311263 z"
     id="path9" /><path
     style="fill:#ffffff;stroke:#006f00;stroke-opacity:1"
     inkscape:connector-curvature="0"
     d="m 253.71614,115.45284 c 0,7.12872 -4.55677,13.52072 -10.80122,13.52072 l -122.90835,0 c -6.24546,0 -11.81383,-6.38695 -11.81383,-13.52173 l 0,-47.086573 c 0,-7.127714 5.56837,-12.154404 11.81383,-12.154404 l 122.90835,0 c 6.24546,0 10.80324,5.02669 10.80324,12.154404 l 0,47.086573 z"
     id="path11" /><path
     style="fill:#ffffff;stroke:#006f00;stroke-width:8;stroke-miterlimit:4;stroke-dasharray:none;stroke-opacity:1"
     inkscape:connector-curvature="0"
     d="m 142.55089,159.5147 c 0,4.28593 -3.7008,7.86242 -8.2899,7.86242 l -16.85164,0 c -4.5891,0 -9.21964,-3.57649 -9.21964,-7.86242 l 0,-13.58237 c 0,-4.28593 4.63054,-7.86242 9.21964,-7.86242 l 16.85164,0 c 4.5891,0 8.2899,3.57649 8.2899,7.86242 l 0,13.58237 z"
     id="path17" /><path
     style="fill:#ffffff;stroke:#006f00;stroke-width:8;stroke-miterlimit:4;stroke-dasharray:none;stroke-opacity:1"
     inkscape:connector-curvature="0"
     d="m 179.94284,159.5147 c 0,4.28593 -3.82409,7.86242 -8.41319,7.86242 l -16.8567,0 c -4.5891,0 -9.09534,-3.57649 -9.09534,-7.86242 l 0,-13.58237 c 0,-4.28593 4.50624,-7.86242 9.09534,-7.86242 l 16.85164,0 c 4.58911,0 8.41319,3.57649 8.41319,7.86242 l 0,13.58237 z"
     id="path19" /><path
     style="fill:#ffffff;stroke:#006f00;stroke-width:8;stroke-miterlimit:4;stroke-dasharray:none;stroke-opacity:1"
     inkscape:connector-curvature="0"
     d="m 253.71614,159.5147 c 0,4.28593 -3.82409,7.86242 -8.41319,7.86242 l -16.85669,0 c -4.58911,0 -9.09534,-3.57649 -9.09534,-7.86242 l 0,-13.58237 c 0,-4.28593 4.50623,-7.86242 9.09534,-7.86242 l 16.85164,0 c 4.5891,0 8.41319,3.57649 8.41319,7.86242 l 0,13.58237 z"
     id="path21" /><path
     style="fill:#ffffff;stroke:#006f00;stroke-width:8;stroke-miterlimit:4;stroke-dasharray:none;stroke-opacity:1"
     inkscape:connector-curvature="0"
     d="m 217.33478,159.5147 c 0,4.28593 -3.82408,7.86242 -8.41318,7.86242 l -16.8567,0 c -4.5891,0 -9.09534,-3.57649 -9.09534,-7.86242 l 0,-13.58237 c 0,-4.28593 4.50624,-7.86242 9.09534,-7.86242 l 16.85164,0 c 4.58911,0 8.41319,3.57649 8.41319,7.86242 l 0,13.58237 z"
     id="path23" /><path
     style="fill:#ffffff;stroke:#006f00;stroke-width:8;stroke-miterlimit:4;stroke-dasharray:none;stroke-opacity:1"
     inkscape:connector-curvature="0"
     d="m 142.55089,191.85368 c 0,4.28593 -3.7008,7.86242 -8.2899,7.86242 l -16.85164,0 c -4.5891,0 -9.21964,-3.57649 -9.21964,-7.86242 l 0,-13.58237 c 0,-4.28593 4.63054,-7.86242 9.21964,-7.86242 l 16.85164,0 c 4.5891,0 8.2899,3.57649 8.2899,7.86242 l 0,13.58237 z"
     id="path27" /><path
     style="fill:#ffffff;stroke:#006f00;stroke-width:8;stroke-miterlimit:4;stroke-dasharray:none;stroke-opacity:1"
     inkscape:connector-curvature="0"
     d="m 179.94284,191.85368 c 0,4.28593 -3.82409,7.86242 -8.41319,7.86242 l -16.8567,0 c -4.5891,0 -9.09534,-3.57649 -9.09534,-7.86242 l 0,-13.58237 c 0,-4.28593 4.50624,-7.86242 9.09534,-7.86242 l 16.85164,0 c 4.58911,0 8.41319,3.57649 8.41319,7.86242 l 0,13.58237 z"
     id="path29" /><path
     style="fill:#ffffff;stroke:#006f00;stroke-width:8;stroke-miterlimit:4;stroke-dasharray:none;stroke-opacity:1"
     inkscape:connector-curvature="0"
     d="m 253.71614,191.85368 c 0,4.28593 -3.82409,7.86242 -8.41319,7.86242 l -16.85669,0 c -4.58911,0 -9.09534,-3.57649 -9.09534,-7.86242 l 0,-13.58237 c 0,-4.28593 4.50623,-7.86242 9.09534,-7.86242 l 16.85164,0 c 4.5891,0 8.41319,3.57649 8.41319,7.86242 l 0,13.58237 z"
     id="path31" /><path
     style="fill:#ffffff;stroke:#006f00;stroke-width:8;stroke-miterlimit:4;stroke-dasharray:none;stroke-opacity:1"
     inkscape:connector-curvature="0"
     d="m 217.33478,191.85368 c 0,4.28593 -3.82408,7.86242 -8.41318,7.86242 l -16.8567,0 c -4.5891,0 -9.09534,-3.57649 -9.09534,-7.86242 l 0,-13.58237 c 0,-4.28593 4.50624,-7.86242 9.09534,-7.86242 l 16.85164,0 c 4.58911,0 8.41319,3.57649 8.41319,7.86242 l 0,13.58237 z"
     id="path33" /><path
     style="fill:#ffffff;stroke:#006f00;stroke-width:8;stroke-miterlimit:4;stroke-dasharray:none;stroke-opacity:1"
     inkscape:connector-curvature="0"
     d="m 142.55089,224.19266 c 0,4.28593 -3.7008,7.86242 -8.2899,7.86242 l -16.85164,0 c -4.5891,0 -9.21964,-3.57649 -9.21964,-7.86242 l 0,-13.58237 c 0,-4.28592 4.63054,-7.86241 9.21964,-7.86241 l 16.85164,0 c 4.5891,0 8.2899,3.57649 8.2899,7.86241 l 0,13.58237 z"
     id="path39" /><path
     style="fill:#ffffff;stroke:#006f00;stroke-width:8;stroke-miterlimit:4;stroke-dasharray:none;stroke-opacity:1"
     inkscape:connector-curvature="0"
     d="m 179.94284,224.19266 c 0,4.28593 -3.82409,7.86242 -8.41319,7.86242 l -16.8567,0 c -4.5891,0 -9.09534,-3.57649 -9.09534,-7.86242 l 0,-13.58237 c 0,-4.28592 4.50624,-7.86241 9.09534,-7.86241 l 16.85164,0 c 4.58911,0 8.41319,3.57649 8.41319,7.86241 l 0,13.58237 z"
     id="path41" /><path
     style="fill:#ffffff;stroke:#006f00;stroke-width:8;stroke-miterlimit:4;stroke-dasharray:none;stroke-opacity:1"
     inkscape:connector-curvature="0"
     d="m 253.71614,224.19266 c 0,4.28593 -3.82409,7.86242 -8.41319,7.86242 l -16.85669,0 c -4.58911,0 -9.09534,-3.57649 -9.09534,-7.86242 l 0,-13.58237 c 0,-4.28592 4.50623,-7.86241 9.09534,-7.86241 l 16.85164,0 c 4.5891,0 8.41319,3.57649 8.41319,7.86241 l 0,13.58237 z"
     id="path43" /><path
     style="fill:#ffffff;stroke:#006f00;stroke-width:8;stroke-miterlimit:4;stroke-dasharray:none;stroke-opacity:1"
     inkscape:connector-curvature="0"
     d="m 217.33478,224.19266 c 0,4.28593 -3.82408,7.86242 -8.41318,7.86242 l -16.8567,0 c -4.5891,0 -9.09534,-3.57649 -9.09534,-7.86242 l 0,-13.58237 c 0,-4.28592 4.50624,-7.86241 9.09534,-7.86241 l 16.85164,0 c 4.58911,0 8.41319,3.57649 8.41319,7.86241 l 0,13.58237 z"
     id="path45" /><path
     style="fill:#ffffff;stroke:#006f00;stroke-width:8;stroke-miterlimit:4;stroke-dasharray:none;stroke-opacity:1"
     inkscape:connector-curvature="0"
     d="m 142.55089,256.53165 c 0,4.28592 -3.7008,7.86241 -8.2899,7.86241 l -16.85164,0 c -4.5891,0 -9.21964,-3.57649 -9.21964,-7.86241 l 0,-13.58238 c 0,-4.28592 4.63054,-7.86241 9.21964,-7.86241 l 16.85164,0 c 4.5891,0 8.2899,3.57649 8.2899,7.86241 l 0,13.58238 z"
     id="path49" /><path
     style="fill:#ffffff;stroke:#006f00;stroke-width:8;stroke-miterlimit:4;stroke-dasharray:none;stroke-opacity:1"
     inkscape:connector-curvature="0"
     d="m 179.94284,256.53165 c 0,4.28592 -3.82409,7.86241 -8.41319,7.86241 l -16.8567,0 c -4.5891,0 -9.09534,-3.57649 -9.09534,-7.86241 l 0,-13.58238 c 0,-4.28592 4.50624,-7.86241 9.09534,-7.86241 l 16.85164,0 c 4.58911,0 8.41319,3.57649 8.41319,7.86241 l 0,13.58238 z"
     id="path51" /><path
     style="fill:#ffffff;stroke:#006f00;stroke-width:8;stroke-miterlimit:4;stroke-dasharray:none;stroke-opacity:1"
     inkscape:connector-curvature="0"
     d="m 217.33478,256.53165 c 0,4.28592 -3.82408,7.86241 -8.41318,7.86241 l -16.8567,0 c -4.5891,0 -9.09534,-3.57649 -9.09534,-7.86241 l 0,-13.58238 c 0,-4.28592 4.50624,-7.86241 9.09534,-7.86241 l 16.85164,0 c 4.58911,0 8.41319,3.57649 8.41319,7.86241 l 0,13.58238 z"
     id="path53" /><path
     style="fill:#ffffff;stroke:#006f00;stroke-width:8;stroke-miterlimit:4;stroke-dasharray:none;stroke-opacity:1"
     inkscape:connector-curvature="0"
     d="m 142.55089,288.87063 c 0,4.28593 -3.7008,7.86241 -8.2899,7.86241 l -16.85164,0 c -4.5891,0 -9.21964,-3.57648 -9.21964,-7.86241 l 0,-13.58237 c 0,-4.28593 4.63054,-7.86242 9.21964,-7.86242 l 16.85164,0 c 4.5891,0 8.2899,3.57649 8.2899,7.86242 l 0,13.58237 z"
     id="path59" /><path
     style="fill:#ffffff;stroke:#006f00;stroke-width:8;stroke-miterlimit:4;stroke-dasharray:none;stroke-opacity:1"
     inkscape:connector-curvature="0"
     d="m 179.94284,288.87063 c 0,4.28593 -3.82409,7.86241 -8.41319,7.86241 l -16.8567,0 c -4.5891,0 -9.09534,-3.57648 -9.09534,-7.86241 l 0,-13.58237 c 0,-4.28593 4.50624,-7.86242 9.09534,-7.86242 l 16.85164,0 c 4.58911,0 8.41319,3.57649 8.41319,7.86242 l 0,13.58237 z"
     id="path61" /><path
     style="fill:#ffffff;stroke:#006f00;stroke-width:8;stroke-miterlimit:4;stroke-dasharray:none;stroke-opacity:1"
     inkscape:connector-curvature="0"
     d="m 217.33478,288.87063 c 0,4.28593 -3.82408,7.86241 -8.41318,7.86241 l -16.8567,0 c -4.5891,0 -9.09534,-3.57648 -9.09534,-7.86241 l 0,-13.58237 c 0,-4.28593 4.50624,-7.86242 9.09534,-7.86242 l 16.85164,0 c 4.58911,0 8.41319,3.57649 8.41319,7.86242 l 0,13.58237 z"
     id="path63" /><path
     style="fill:#ffffff;stroke:#006f00;stroke-width:8;stroke-miterlimit:4;stroke-dasharray:none;stroke-opacity:1"
     id="path65"
     d="m 253.71614,289.45677 c 0,4.01913 -3.25815,7.27627 -7.27627,7.27627 l -19.80763,0 c -4.01913,0 -7.27627,-3.25815 -7.27627,-7.27627 l 0,-47.09364 c 0,-4.01913 3.25815,-7.27627 7.27627,-7.27627 l 19.80763,0 c 4.01913,0 7.27627,3.25815 7.27627,7.27627 l 0,47.09364 z"
     inkscape:connector-curvature="0" /><metadata
     id="metadata67"><rdf:RDF><cc:Work><dc:format>image/svg+xml</dc:format><dc:type
           rdf:resource="http://purl.org/dc/dcmitype/StillImage" /><cc:license
           rdf:resource="http://creativecommons.org/licenses/publicdomain/" /><dc:publisher><cc:Agent
             rdf:about="http://openclipart.org/"><dc:title>Openclipart</dc:title></cc:Agent></dc:publisher></cc:Work><cc:License
         rdf:about="http://creativecommons.org/licenses/publicdomain/"><cc:permits
           rdf:resource="http://creativecommons.org/ns#Reproduction" /><cc:permits
           rdf:resource="http://creativecommons.org/ns#Distribution" /><cc:permits
           rdf:resource="http://creativecommons.org/ns#DerivativeWorks" /></cc:License></rdf:RDF></metadata></svg>