<?xml version="1.0" encoding="UTF-8" standalone="no"?>
<!-- Created with Inkscape (http://www.inkscape.org/) -->

<svg
   xmlns:dc="http://purl.org/dc/elements/1.1/"
   xmlns:cc="http://creativecommons.org/ns#"
   xmlns:rdf="http://www.w3.org/1999/02/22-rdf-syntax-ns#"
   xmlns:svg="http://www.w3.org/2000/svg"
   xmlns="http://www.w3.org/2000/svg"
   xmlns:sodipodi="http://sodipodi.sourceforge.net/DTD/sodipodi-0.dtd"
   xmlns:inkscape="http://www.inkscape.org/namespaces/inkscape"
   id="svg4158"
   sodipodi:docname="insert_html.svg"
   viewBox="0 0 209.37 241.7"
   version="1.1"
   inkscape:version="0.91 r13725"
   inkscape:export-filename="/home/jo/localgit/egcas/egcas-core/egCAS/src/res/insert_html.png"
   inkscape:export-xdpi="16.038105"
   inkscape:export-ydpi="16.038105">
  <defs
     id="defs4160" />
  <sodipodi:namedview
     id="base"
     bordercolor="#666666"
     inkscape:pageshadow="2"
     inkscape:window-y="0"
     fit-margin-left="0"
     pagecolor="#ffffff"
     fit-margin-top="0"
     inkscape:window-maximized="1"
     inkscape:zoom="2.3921832"
     inkscape:window-x="0"
     inkscape:window-height="1021"
     showgrid="false"
     borderopacity="1.0"
     inkscape:current-layer="g4842"
     inkscape:cx="-125.32369"
     inkscape:cy="156.39034"
     fit-margin-right="0"
     fit-margin-bottom="0"
     inkscape:window-width="1920"
     inkscape:pageopacity="0.0"
     inkscape:document-units="px" />
  <g
     id="layer1"
     inkscape:label="Layer 1"
     inkscape:groupmode="layer"
     transform="translate(-309.6 -448.65)">
    <g
       id="g4842">
      <rect
         style="opacity:1;fill:none;fill-opacity:1;stroke:#000000;stroke-width:4.354;stroke-linejoin:miter;stroke-miterlimit:0;stroke-dasharray:none;stroke-opacity:1"
         id="rect4222"
         width="175.21834"
         height="147.21045"
         x="323.57169"
         y="494.0535"
         ry="23" />
      <path
         d="m 414.82,514.82 70.207,0 c 0.10603,0 0.19139,0.004 0.19139,0.009 l 0,11.17 c 0,0.005 -0.0854,0.009 -0.19139,0.009 l -70.207,0 c -0.10602,0 -0.19138,-0.004 -0.19138,-0.009 l 0,-11.17 c 0,-0.005 0.0854,-0.009 0.19138,-0.009 z"
         inkscape:connector-curvature="0"
         style="fill:#000000;stroke-width:4.354;stroke-miterlimit:0;stroke-dasharray:none;fill-opacity:1"
         id="rect4142" />
      <path
         d="m 414.82,534.87 70.207,0 c 0.10603,0 0.19139,0.004 0.19139,0.009 l 0,11.17 c 0,0.005 -0.0854,0.009 -0.19139,0.009 l -70.207,0 c -0.10602,0 -0.19138,-0.004 -0.19138,-0.009 l 0,-11.17 c 0,-0.005 0.0854,-0.009 0.19138,-0.009 z"
         inkscape:connector-curvature="0"
         style="fill:#000000;stroke-width:4.354;stroke-miterlimit:0;stroke-dasharray:none;fill-opacity:1"
         id="path3187" />
      <path
         d="m 414.82,552.42 70.207,0 c 0.10603,0 0.19139,0.004 0.19139,0.009 l 0,11.17 c 0,0.005 -0.0854,0.009 -0.19139,0.009 l -70.207,0 c -0.10602,0 -0.19138,-0.004 -0.19138,-0.009 l 0,-11.17 c 0,-0.005 0.0854,-0.009 0.19138,-0.009 z"
         inkscape:connector-curvature="0"
         style="fill:#000000;stroke-width:4.354;stroke-miterlimit:0;stroke-dasharray:none;fill-opacity:1"
         id="path4300" />
      <path
         d="m 414.82,572.47 70.207,0 c 0.10603,0 0.19139,0.004 0.19139,0.009 l 0,11.17 c 0,0.005 -0.0854,0.009 -0.19139,0.009 l -70.207,0 c -0.10602,0 -0.19138,-0.004 -0.19138,-0.009 l 0,-11.17 c 0,-0.005 0.0854,-0.009 0.19138,-0.009 z"
         inkscape:connector-curvature="0"
         style="fill:#000000;stroke-width:4.354;stroke-miterlimit:0;stroke-dasharray:none;fill-opacity:1"
         id="path4302" />
      <path
         d="m 414.82,590.67 70.207,0 c 0.10603,0 0.19139,0.004 0.19139,0.009 l 0,11.17 c 0,0.005 -0.0854,0.009 -0.19139,0.009 l -70.207,0 c -0.10602,0 -0.19138,-0.004 -0.19138,-0.009 l 0,-11.17 c 0,-0.005 0.0854,-0.009 0.19138,-0.009 z"
         inkscape:connector-curvature="0"
         style="fill:#000000;stroke-width:4.354;stroke-miterlimit:0;stroke-dasharray:none;fill-opacity:1"
         id="path4304" />
      <path
         d="m 343.7,610.72 141.13,0 c 0.21314,0 0.38474,0.004 0.38474,0.009 l 0,11.17 c 0,0.005 -0.17168,0.009 -0.38474,0.009 l -141.13,0 c -0.21313,0 -0.38473,-0.004 -0.38473,-0.009 l 0,-11.17 c 0,-0.005 0.17168,-0.009 0.38473,-0.009 z"
         inkscape:connector-curvature="0"
         style="fill:#000000;fill-opacity:1;stroke-width:4.354;stroke-miterlimit:0;stroke-dasharray:none"
         id="path4306" />
      <text
         xml:space="preserve"
         style="font-style:normal;font-weight:normal;font-size:114.54508972px;line-height:125%;font-family:sans-serif;text-align:start;letter-spacing:0px;word-spacing:0px;writing-mode:lr-tb;text-anchor:start;fill:#000000;fill-opacity:1;stroke:none;stroke-width:1px;stroke-linecap:butt;stroke-linejoin:miter;stroke-opacity:1"
         x="324.4393"
         y="600.47394"
         id="text4249"
         sodipodi:linespacing="125%"><tspan
           sodipodi:role="line"
           id="tspan4251"
           x="324.4393"
           y="600.47394">H</tspan></text>
    </g>
  </g>
  <metadata
     id="metadata48">
    <rdf:RDF>
      <cc:Work>
        <dc:format>image/svg+xml</dc:format>
        <dc:type
           rdf:resource="http://purl.org/dc/dcmitype/StillImage" />
        <cc:license
           rdf:resource="http://creativecommons.org/publicdomain/zero/1.0/" />
        <dc:publisher>
          <cc:Agent
             rdf:about="http://openclipart.org/">
            <dc:title>Openclipart</dc:title>
          </cc:Agent>
        </dc:publisher>
        <dc:title />
        <dc:date>2011-04-04T09:54:06</dc:date>
        <dc:description>Text file icon</dc:description>
        <dc:source>https://openclipart.org/detail/130963/text-file-icon-by-gsagri04</dc:source>
        <dc:creator>
          <cc:Agent>
            <dc:title>gsagri04</dc:title>
          </cc:Agent>
        </dc:creator>
        <dc:subject>
          <rdf:Bag>
            <rdf:li>Txt</rdf:li>
            <rdf:li>code</rdf:li>
            <rdf:li>file</rdf:li>
            <rdf:li>icon</rdf:li>
            <rdf:li>office</rdf:li>
            <rdf:li>text</rdf:li>
          </rdf:Bag>
        </dc:subject>
      </cc:Work>
      <cc:License
         rdf:about="http://creativecommons.org/licenses/publicdomain/">
        <cc:permits
           rdf:resource="http://creativecommons.org/ns#Reproduction" />
        <cc:permits
           rdf:resource="http://creativecommons.org/ns#Distribution" />
        <cc:permits
           rdf:resource="http://creativecommons.org/ns#DerivativeWorks" />
      </cc:License>
    </rdf:RDF>
  </metadata>
</svg>
