<?xml version="1.0" encoding="UTF-8" standalone="no"?>
<!--part of the rodentia icon theme by sixsixfive released under CC0 (https://creativecommons.org/publicdomain/zero/1.0/) on openclipart-->

<svg
   xmlns:dc="http://purl.org/dc/elements/1.1/"
   xmlns:cc="http://creativecommons.org/ns#"
   xmlns:rdf="http://www.w3.org/1999/02/22-rdf-syntax-ns#"
   xmlns:svg="http://www.w3.org/2000/svg"
   xmlns="http://www.w3.org/2000/svg"
   xmlns:xlink="http://www.w3.org/1999/xlink"
   xmlns:sodipodi="http://sodipodi.sourceforge.net/DTD/sodipodi-0.dtd"
   xmlns:inkscape="http://www.inkscape.org/namespaces/inkscape"
   viewBox="0 0 48 48"
   id="svg2"
   version="1.1"
   inkscape:version="0.91 r13725"
   sodipodi:docname="insert_graphic.svg">
  <metadata
     id="metadata51">
    <rdf:RDF>
      <cc:Work
         rdf:about="">
        <dc:format>image/svg+xml</dc:format>
        <dc:type
           rdf:resource="http://purl.org/dc/dcmitype/StillImage" />
      </cc:Work>
    </rdf:RDF>
  </metadata>
  <sodipodi:namedview
     pagecolor="#ffffff"
     bordercolor="#666666"
     borderopacity="1"
     objecttolerance="10"
     gridtolerance="10"
     guidetolerance="10"
     inkscape:pageopacity="0"
     inkscape:pageshadow="2"
     inkscape:window-width="1920"
     inkscape:window-height="1021"
     id="namedview49"
     showgrid="false"
     inkscape:zoom="4.9166667"
     inkscape:cx="24"
     inkscape:cy="24"
     inkscape:window-x="0"
     inkscape:window-y="0"
     inkscape:window-maximized="1"
     inkscape:current-layer="svg2" />
  <defs
     id="0">
    <linearGradient
       id="B">
      <stop
         id="S"
         stop-color="#2e3436" />
      <stop
         id="T"
         offset="1"
         stop-color="#2e3436"
         stop-opacity="0" />
    </linearGradient>
    <linearGradient
       id="C">
      <stop
         id="U"
         stop-color="#eeeeec" />
      <stop
         id="V"
         offset="1"
         stop-color="#eeeeec"
         stop-opacity="0" />
    </linearGradient>
    <linearGradient
       id="D">
      <stop
         id="W"
         stop-color="#fff"
         stop-opacity="0.8" />
      <stop
         id="X"
         offset="1"
         stop-color="#fff"
         stop-opacity="0" />
    </linearGradient>
    <linearGradient
       id="E">
      <stop
         id="Y"
         stop-color="#eee" />
      <stop
         id="Z"
         offset="1"
         stop-color="#dcdcdc" />
    </linearGradient>
    <radialGradient
       cx="60.05"
       cy="51.39"
       r="15.03"
       id="F"
       xlink:href="#E"
       gradientUnits="userSpaceOnUse"
       gradientTransform="matrix(-1.404511,1.1888571,-1,-1.1813958,199.73811,11.750541)" />
    <linearGradient
       id="G">
      <stop
         id="a"
         stop-color="#8bb300" />
      <stop
         id="b"
         offset="1"
         stop-color="#638000" />
    </linearGradient>
    <linearGradient
       id="H">
      <stop
         id="c"
         stop-color="#729fcf" />
      <stop
         id="d"
         offset="1"
         stop-color="#3465a4" />
    </linearGradient>
    <linearGradient
       id="I">
      <stop
         id="e"
         stop-color="#183768" />
      <stop
         id="f"
         offset="1"
         stop-color="#183768"
         stop-opacity="0" />
    </linearGradient>
    <linearGradient
       id="J">
      <stop
         id="g"
         stop-color="#fce94f" />
      <stop
         id="h"
         offset="1"
         stop-color="#edd400" />
    </linearGradient>
    <filter
       x="-0.179"
       y="-0.152"
       width="1.358"
       height="1.304"
       color-interpolation-filters="sRGB"
       id="K">
      <feGaussianBlur
         stdDeviation="1.10486"
         id="i" />
    </filter>
    <linearGradient
       x1="4.094"
       y1="-58.01"
       x2="15.298"
       y2="33.906"
       id="L"
       xlink:href="#C"
       gradientUnits="userSpaceOnUse"
       gradientTransform="translate(0,-1.4999995)" />
    <linearGradient
       y1="37.937"
       x2="0"
       y2="50.813"
       id="M"
       xlink:href="#G"
       gradientUnits="userSpaceOnUse"
       gradientTransform="matrix(0.8101829,0,0,0.8101829,8.5727213,6.143134)" />
    <radialGradient
       cx="6.995"
       cy="1.101"
       r="14.14"
       id="N"
       xlink:href="#J"
       gradientUnits="userSpaceOnUse"
       gradientTransform="matrix(0.1915793,0.7621212,-1.1121793,0.2795757,5.187891,-1.8028429)" />
    <radialGradient
       cx="-1.981"
       cy="-7.492"
       r="44.05"
       id="O"
       xlink:href="#I"
       gradientUnits="userSpaceOnUse"
       gradientTransform="matrix(-0.08235971,1.5053687,-1.852913,-0.1013743,-7.077517,10.898124)" />
    <radialGradient
       cx="-4.758"
       cy="-12.682"
       r="44.04"
       id="P"
       xlink:href="#H"
       gradientUnits="userSpaceOnUse"
       gradientTransform="matrix(0.00768054,0.9244876,-1.4958797,0.01242759,-10.272451,11.157331)" />
    <linearGradient
       y1="4.219"
       x2="0"
       y2="43.781"
       id="Q"
       xlink:href="#D"
       gradientUnits="userSpaceOnUse"
       gradientTransform="translate(0,-1.4999995)" />
    <radialGradient
       cx="24.377"
       cy="45.941"
       r="23.08"
       id="R"
       xlink:href="#B"
       gradientUnits="userSpaceOnUse"
       gradientTransform="matrix(1,0,0,0.1455399,-0.37703133,36.455065)" />
  </defs>
  <rect
     width="42"
     height="42"
     x="3"
     y="1.5"
     id="2"
     fill="#183768"
     rx="6" />
  <path
     d="m 9,2.5937505 c -2.7391229,0 -4.90625,2.1671271 -4.90625,4.90625 l 0,29.9999995 c 0,2.739123 2.1671271,4.90625 4.90625,4.90625 l 30,0 c 2.739123,0 4.90625,-2.167127 4.90625,-4.90625 l 0,-29.9999995 c 0,-2.7391229 -2.167127,-4.90625 -4.90625,-4.90625 l -30,0 z"
     id="3"
     fill="#555753" />
  <path
     d="M 9,2.59375 C 6.2608771,2.59375 4.09375,4.7608771 4.09375,7.5 l 0,30 c 0,2.739124 2.1671271,4.90625 4.90625,4.90625 l 30,0 c 2.739123,0 4.90625,-2.167127 4.90625,-4.90625 l 0,-30 C 43.90625,4.7608771 41.739123,2.59375 39,2.59375 l -30,0 z"
     id="4"
     fill="url(#P)" />
  <path
     d="M 24.03125,2.59375 7.375,10.96875 7.21875,10.5625 7.3125,11 7.125,11.09375 l 0.1875,-0.0625 0.03125,0.125 -0.21875,-0.0625 -0.03125,0 -0.40625,-0.125 0.25,0.125 0.21875,0.3125 L 7,11.4375 l 0.1875,0.03125 0.15625,0.21875 -3.25,3.375 0,1.96875 L 7.4375,11.8125 7.46875,11.875 7.5,12.1875 l -3.40625,9.84375 0,15.46875 c 0,0.139221 0.020263,0.270194 0.03125,0.40625 l 3.5,-25.1875 5.1875,29.6875 6.71875,0 -11.4375,-29.625 20.34375,29.625 10.5625,0 -31.25,-30.5625 0,-0.3125 L 7.6875,11.75 7.625,11.53125 7.65625,11.5 l 0.03125,0 0.0625,0.03125 36.15625,19.90625 0,-8.625 -35.125,-11.1875 35.125,3.375 0,-7.21875 L 7.9375,11.34375 7.75,11.28125 7.46875,11.21875 7.40625,11 l 30.3125,-8.40625 -13.6875,0 z m -17,8.53125 0.3125,0.1875 0.03125,0.09375 -0.0625,0 L 7.03125,11.125 z"
     id="5"
     fill="url(#O)" />
  <path
     d="M 9,2.59375 C 6.2608771,2.59375 4.09375,4.7608771 4.09375,7.5 l 0,11.65625 c 0.97459,0.272781 2.0008174,0.40625 3.0625,0.40625 6.265156,0 11.344929,-5.078595 11.34375,-11.34375 3.85e-4,-2.0480765 -0.550708,-3.9663502 -1.5,-5.625 l -8,0 z"
     id="6"
     fill="url(#N)" />
  <path
     d="m 4.09375,36.875 0,0.625 c 0,2.739124 2.1671271,4.90625 4.90625,4.90625 l 30,0 c 1.51652,0 2.823609,-0.692132 3.71875,-1.75 C 30.265942,39.009823 17.242662,36.947042 4.09375,36.875 z"
     id="7"
     fill="url(#M)"
     fill-rule="evenodd" />
  <path
     d="m 16.5,2.59375 c 1.004127,1.6493742 1.594137,3.5665417 1.59375,5.625 0.0011,5.974721 -4.868101,10.875 -10.9375,10.875 -1.067981,0 -2.0893632,-0.155551 -3.0625,-0.4375 l 0,0.96875 c 0.973214,0.261854 2.0094346,0.40625 3.0625,0.40625 6.460912,0 11.751233,-5.25691 11.75,-11.8125 3.85e-4,-2.0486219 -0.529574,-3.9479337 -1.4375,-5.625 l -0.96875,0 z"
     id="8"
     fill="#fce94f"
     filter="url(#K)" />
  <path
     d="m 9,3.2187505 c -2.4056148,0 -4.28125,1.8756352 -4.28125,4.28125 l 0,29.9999995 c 0,2.405615 1.8756352,4.28125 4.28125,4.28125 l 30,0 c 2.405615,0 4.28125,-1.875635 4.28125,-4.28125 l 0,-29.9999995 c 0,-2.4056148 -1.875635,-4.28125 -4.28125,-4.28125 l -30,0 z"
     id="9"
     opacity="0.8"
     fill="none"
     stroke="url(#Q)"
     stroke-linecap="round"
     stroke-dashoffset="30" />
  <path
     d="m 9,2.5937505 c -2.7391229,0 -4.90625,2.1671271 -4.90625,4.90625 l 0,17.1562505 c 12.085208,-5.133143 25.680845,-9.569523 39.8125,-12.53125 l 0,-4.6250005 c 0,-2.7391229 -2.167127,-4.90625 -4.90625,-4.90625 l -30,0 0,0 z"
     id="A"
     opacity="0.6"
     fill="url(#L)" />
</svg>
