<?xml version="1.0" encoding="UTF-8" standalone="no"?>
<!-- Created with Inkscape (http://www.inkscape.org/) -->

<svg
   xmlns:dc="http://purl.org/dc/elements/1.1/"
   xmlns:cc="http://creativecommons.org/ns#"
   xmlns:rdf="http://www.w3.org/1999/02/22-rdf-syntax-ns#"
   xmlns:svg="http://www.w3.org/2000/svg"
   xmlns="http://www.w3.org/2000/svg"
   xmlns:sodipodi="http://sodipodi.sourceforge.net/DTD/sodipodi-0.dtd"
   xmlns:inkscape="http://www.inkscape.org/namespaces/inkscape"
   id="svg4158"
   sodipodi:docname="insert_text.svg"
   viewBox="0 0 209.37 241.7"
   version="1.1"
   inkscape:version="0.91 r13725">
  <defs
     id="defs4160" />
  <sodipodi:namedview
     id="base"
     bordercolor="#666666"
     inkscape:pageshadow="2"
     inkscape:window-y="0"
     fit-margin-left="0"
     pagecolor="#ffffff"
     fit-margin-top="0"
     inkscape:window-maximized="1"
     inkscape:zoom="2.3921832"
     inkscape:window-x="0"
     inkscape:window-height="1021"
     showgrid="false"
     borderopacity="1.0"
     inkscape:current-layer="g4842"
     inkscape:cx="-23.951857"
     inkscape:cy="156.39034"
     fit-margin-right="0"
     fit-margin-bottom="0"
     inkscape:window-width="1920"
     inkscape:pageopacity="0.0"
     inkscape:document-units="px" />
  <g
     id="layer1"
     inkscape:label="Layer 1"
     inkscape:groupmode="layer"
     transform="translate(-309.6 -448.65)">
    <g
       id="g4842">
      <rect
         style="opacity:1;fill:none;fill-opacity:1;stroke:#000000;stroke-width:4.354;stroke-linejoin:miter;stroke-miterlimit:0;stroke-dasharray:none;stroke-opacity:1"
         id="rect4222"
         width="175.21834"
         height="147.21045"
         x="323.57169"
         y="494.0535"
         ry="23" />
      <g
         transform="scale(0.931,1.0741)"
         style="fill:#000000;stroke-width:4.35402808;stroke-miterlimit:0;stroke-dasharray:none;fill-opacity:1"
         id="text4292">
        <path
           d="m 360.52,481.34 0,20.845 8.126,0 1.8843,-12.601 1.8843,-1.531 14.132,0 0,64.065 -2.002,1.8843 -7.6549,0.58884 0,5.7706 35.212,0 0,-5.7706 -7.6549,-0.58884 -2.002,-1.8843 0,-64.065 14.132,0 1.7665,1.531 2.002,12.601 8.126,0 0,-20.845 -67.952,0"
           inkscape:connector-curvature="0"
           style="fill:#000000;stroke-width:4.35402808;stroke-miterlimit:0;stroke-dasharray:none;fill-opacity:1"
           id="path4888" />
      </g>
      <path
         d="m 414.82,514.82 70.207,0 c 0.10603,0 0.19139,0.004 0.19139,0.009 l 0,11.17 c 0,0.005 -0.0854,0.009 -0.19139,0.009 l -70.207,0 c -0.10602,0 -0.19138,-0.004 -0.19138,-0.009 l 0,-11.17 c 0,-0.005 0.0854,-0.009 0.19138,-0.009 z"
         inkscape:connector-curvature="0"
         style="fill:#000000;stroke-width:4.354;stroke-miterlimit:0;stroke-dasharray:none;fill-opacity:1"
         id="rect4142" />
      <path
         d="m 414.82,534.87 70.207,0 c 0.10603,0 0.19139,0.004 0.19139,0.009 l 0,11.17 c 0,0.005 -0.0854,0.009 -0.19139,0.009 l -70.207,0 c -0.10602,0 -0.19138,-0.004 -0.19138,-0.009 l 0,-11.17 c 0,-0.005 0.0854,-0.009 0.19138,-0.009 z"
         inkscape:connector-curvature="0"
         style="fill:#000000;stroke-width:4.354;stroke-miterlimit:0;stroke-dasharray:none;fill-opacity:1"
         id="path3187" />
      <path
         d="m 414.82,552.42 70.207,0 c 0.10603,0 0.19139,0.004 0.19139,0.009 l 0,11.17 c 0,0.005 -0.0854,0.009 -0.19139,0.009 l -70.207,0 c -0.10602,0 -0.19138,-0.004 -0.19138,-0.009 l 0,-11.17 c 0,-0.005 0.0854,-0.009 0.19138,-0.009 z"
         inkscape:connector-curvature="0"
         style="fill:#000000;stroke-width:4.354;stroke-miterlimit:0;stroke-dasharray:none;fill-opacity:1"
         id="path4300" />
      <path
         d="m 414.82,572.47 70.207,0 c 0.10603,0 0.19139,0.004 0.19139,0.009 l 0,11.17 c 0,0.005 -0.0854,0.009 -0.19139,0.009 l -70.207,0 c -0.10602,0 -0.19138,-0.004 -0.19138,-0.009 l 0,-11.17 c 0,-0.005 0.0854,-0.009 0.19138,-0.009 z"
         inkscape:connector-curvature="0"
         style="fill:#000000;stroke-width:4.354;stroke-miterlimit:0;stroke-dasharray:none;fill-opacity:1"
         id="path4302" />
      <path
         d="m 414.82,590.67 70.207,0 c 0.10603,0 0.19139,0.004 0.19139,0.009 l 0,11.17 c 0,0.005 -0.0854,0.009 -0.19139,0.009 l -70.207,0 c -0.10602,0 -0.19138,-0.004 -0.19138,-0.009 l 0,-11.17 c 0,-0.005 0.0854,-0.009 0.19138,-0.009 z"
         inkscape:connector-curvature="0"
         style="fill:#000000;stroke-width:4.354;stroke-miterlimit:0;stroke-dasharray:none;fill-opacity:1"
         id="path4304" />
      <path
         d="m 343.7,610.72 141.13,0 c 0.21314,0 0.38474,0.004 0.38474,0.009 l 0,11.17 c 0,0.005 -0.17168,0.009 -0.38474,0.009 l -141.13,0 c -0.21313,0 -0.38473,-0.004 -0.38473,-0.009 l 0,-11.17 c 0,-0.005 0.17168,-0.009 0.38473,-0.009 z"
         inkscape:connector-curvature="0"
         style="fill:#000000;fill-opacity:1;stroke-width:4.354;stroke-miterlimit:0;stroke-dasharray:none"
         id="path4306" />
    </g>
  </g>
  <metadata
     id="metadata48">
    <rdf:RDF>
      <cc:Work>
        <dc:format>image/svg+xml</dc:format>
        <dc:type
           rdf:resource="http://purl.org/dc/dcmitype/StillImage" />
        <cc:license
           rdf:resource="http://creativecommons.org/licenses/publicdomain/" />
        <dc:publisher>
          <cc:Agent
             rdf:about="http://openclipart.org/">
            <dc:title>Openclipart</dc:title>
          </cc:Agent>
        </dc:publisher>
        <dc:title>Text file icon</dc:title>
        <dc:date>2011-04-04T09:54:06</dc:date>
        <dc:description>Text file icon</dc:description>
        <dc:source>https://openclipart.org/detail/130963/text-file-icon-by-gsagri04</dc:source>
        <dc:creator>
          <cc:Agent>
            <dc:title>gsagri04</dc:title>
          </cc:Agent>
        </dc:creator>
        <dc:subject>
          <rdf:Bag>
            <rdf:li>Txt</rdf:li>
            <rdf:li>code</rdf:li>
            <rdf:li>file</rdf:li>
            <rdf:li>icon</rdf:li>
            <rdf:li>office</rdf:li>
            <rdf:li>text</rdf:li>
          </rdf:Bag>
        </dc:subject>
      </cc:Work>
      <cc:License
         rdf:about="http://creativecommons.org/licenses/publicdomain/">
        <cc:permits
           rdf:resource="http://creativecommons.org/ns#Reproduction" />
        <cc:permits
           rdf:resource="http://creativecommons.org/ns#Distribution" />
        <cc:permits
           rdf:resource="http://creativecommons.org/ns#DerivativeWorks" />
      </cc:License>
    </rdf:RDF>
  </metadata>
</svg>
